<svg width="409" height="579" viewBox="0 0 409 579" fill="none" xmlns="http://www.w3.org/2000/svg">
<path d="M151.688 26.457C153.799 26.9062 155.379 27.625 156.427 28.6133C157.879 29.9909 158.605 31.6755 158.605 33.667C158.605 35.1794 158.126 36.6318 157.168 38.0244C156.21 39.402 154.892 40.4128 153.215 41.0566C151.553 41.6855 149.007 42 145.578 42H131.203V41.1689H132.349C133.621 41.1689 134.535 40.7646 135.089 39.9561C135.433 39.432 135.605 38.3164 135.605 36.6094V16.9336C135.605 15.0469 135.388 13.8564 134.954 13.3623C134.37 12.7035 133.502 12.374 132.349 12.374H131.203V11.543H144.365C146.821 11.543 148.79 11.7227 150.272 12.082C152.519 12.6211 154.233 13.5794 155.416 14.957C156.599 16.3197 157.19 17.8919 157.19 19.6738C157.19 21.2012 156.726 22.5713 155.798 23.7842C154.869 24.9821 153.499 25.873 151.688 26.457ZM139.918 25.2441C140.472 25.349 141.101 25.4313 141.805 25.4912C142.523 25.5361 143.31 25.5586 144.163 25.5586C146.349 25.5586 147.989 25.3265 149.082 24.8623C150.19 24.3831 151.036 23.6569 151.62 22.6836C152.204 21.7103 152.496 20.6471 152.496 19.4941C152.496 17.7122 151.77 16.1924 150.317 14.9346C148.865 13.6768 146.746 13.0479 143.961 13.0479C142.464 13.0479 141.116 13.2126 139.918 13.542V25.2441ZM139.918 39.7988C141.655 40.2031 143.369 40.4053 145.062 40.4053C147.772 40.4053 149.838 39.7988 151.261 38.5859C152.683 37.3581 153.395 35.8457 153.395 34.0488C153.395 32.8659 153.073 31.7279 152.429 30.6348C151.785 29.5417 150.737 28.6807 149.284 28.0518C147.832 27.4229 146.035 27.1084 143.894 27.1084C142.965 27.1084 142.172 27.1234 141.513 27.1533C140.854 27.1833 140.322 27.2357 139.918 27.3105V39.7988ZM180.595 21.4258V33.8916C180.595 36.2725 180.647 37.7324 180.752 38.2715C180.872 38.7956 181.051 39.1624 181.291 39.3721C181.546 39.5817 181.838 39.6865 182.167 39.6865C182.631 39.6865 183.155 39.5592 183.739 39.3047L184.054 40.0908L177.899 42.6289H176.889V38.2715C175.122 40.1882 173.774 41.3936 172.846 41.8877C171.917 42.3818 170.937 42.6289 169.903 42.6289C168.75 42.6289 167.747 42.2995 166.894 41.6406C166.055 40.9668 165.471 40.1058 165.142 39.0576C164.812 38.0094 164.647 36.527 164.647 34.6104V25.4238C164.647 24.4505 164.543 23.7767 164.333 23.4023C164.123 23.028 163.809 22.7435 163.39 22.5488C162.985 22.3392 162.244 22.2419 161.166 22.2568V21.4258H168.376V35.1943C168.376 37.111 168.705 38.3688 169.364 38.9678C170.038 39.5667 170.847 39.8662 171.79 39.8662C172.434 39.8662 173.16 39.6641 173.969 39.2598C174.792 38.8555 175.766 38.0843 176.889 36.9463V25.2891C176.889 24.1211 176.672 23.335 176.237 22.9307C175.818 22.5114 174.935 22.2868 173.587 22.2568V21.4258H180.595ZM191.578 20.8193V25.4463C193.3 22.3617 195.067 20.8193 196.879 20.8193C197.702 20.8193 198.384 21.0739 198.923 21.583C199.462 22.0771 199.731 22.6536 199.731 23.3125C199.731 23.8965 199.537 24.3906 199.147 24.7949C198.758 25.1992 198.294 25.4014 197.755 25.4014C197.231 25.4014 196.639 25.1468 195.98 24.6377C195.337 24.1136 194.857 23.8516 194.543 23.8516C194.273 23.8516 193.981 24.0013 193.667 24.3008C192.993 24.9147 192.297 25.9255 191.578 27.333V37.1934C191.578 38.3314 191.72 39.1924 192.005 39.7764C192.2 40.1807 192.544 40.5176 193.038 40.7871C193.532 41.0566 194.243 41.1914 195.172 41.1914V42H184.638V41.1914C185.686 41.1914 186.465 41.0267 186.974 40.6973C187.348 40.4577 187.61 40.0758 187.76 39.5518C187.835 39.2972 187.872 38.571 187.872 37.373V29.3994C187.872 27.0036 187.82 25.5811 187.715 25.1318C187.625 24.6676 187.445 24.3307 187.176 24.1211C186.921 23.9115 186.599 23.8066 186.21 23.8066C185.746 23.8066 185.222 23.9189 184.638 24.1436L184.413 23.335L190.635 20.8193H191.578ZM206.874 25.1768C209.285 22.2718 211.583 20.8193 213.77 20.8193C214.893 20.8193 215.858 21.1038 216.667 21.6729C217.476 22.2269 218.119 23.1478 218.599 24.4355C218.928 25.334 219.093 26.7116 219.093 28.5684V37.3506C219.093 38.6533 219.198 39.5368 219.407 40.001C219.572 40.3753 219.834 40.6673 220.193 40.877C220.568 41.0866 221.249 41.1914 222.237 41.1914V42H212.062V41.1914H212.489C213.448 41.1914 214.114 41.0492 214.488 40.7646C214.878 40.4652 215.147 40.0309 215.297 39.4619C215.357 39.2373 215.387 38.5335 215.387 37.3506V28.9277C215.387 27.056 215.14 25.7008 214.646 24.8623C214.166 24.0088 213.35 23.582 212.197 23.582C210.415 23.582 208.641 24.5553 206.874 26.502V37.3506C206.874 38.7432 206.956 39.6042 207.121 39.9336C207.331 40.3678 207.615 40.6898 207.975 40.8994C208.349 41.0941 209.098 41.1914 210.221 41.1914V42H200.046V41.1914H200.495C201.543 41.1914 202.247 40.9294 202.606 40.4053C202.981 39.8662 203.168 38.848 203.168 37.3506V29.7139C203.168 27.2432 203.108 25.7383 202.988 25.1992C202.883 24.6602 202.711 24.2933 202.472 24.0986C202.247 23.904 201.94 23.8066 201.551 23.8066C201.132 23.8066 200.63 23.9189 200.046 24.1436L199.709 23.335L205.908 20.8193H206.874V25.1768ZM224.304 29.9834H235.916V33.375H224.304V29.9834ZM244.429 10.0605C245.058 10.0605 245.589 10.2852 246.023 10.7344C246.473 11.1686 246.697 11.7002 246.697 12.3291C246.697 12.958 246.473 13.4971 246.023 13.9463C245.589 14.3955 245.058 14.6201 244.429 14.6201C243.8 14.6201 243.261 14.3955 242.812 13.9463C242.362 13.4971 242.138 12.958 242.138 12.3291C242.138 11.7002 242.355 11.1686 242.789 10.7344C243.238 10.2852 243.785 10.0605 244.429 10.0605ZM246.293 20.8193V37.3506C246.293 38.6383 246.383 39.4993 246.562 39.9336C246.757 40.3529 247.034 40.6673 247.394 40.877C247.768 41.0866 248.442 41.1914 249.415 41.1914V42H239.42V41.1914C240.423 41.1914 241.097 41.0941 241.441 40.8994C241.786 40.7048 242.055 40.3828 242.25 39.9336C242.46 39.4844 242.564 38.6234 242.564 37.3506V29.4219C242.564 27.1908 242.497 25.7458 242.362 25.0869C242.257 24.6077 242.093 24.2783 241.868 24.0986C241.644 23.904 241.337 23.8066 240.947 23.8066C240.528 23.8066 240.019 23.9189 239.42 24.1436L239.105 23.335L245.305 20.8193H246.293ZM257.995 25.1768C260.406 22.2718 262.704 20.8193 264.891 20.8193C266.014 20.8193 266.979 21.1038 267.788 21.6729C268.597 22.2269 269.241 23.1478 269.72 24.4355C270.049 25.334 270.214 26.7116 270.214 28.5684V37.3506C270.214 38.6533 270.319 39.5368 270.528 40.001C270.693 40.3753 270.955 40.6673 271.314 40.877C271.689 41.0866 272.37 41.1914 273.358 41.1914V42H263.184V41.1914H263.61C264.569 41.1914 265.235 41.0492 265.609 40.7646C265.999 40.4652 266.268 40.0309 266.418 39.4619C266.478 39.2373 266.508 38.5335 266.508 37.3506V28.9277C266.508 27.056 266.261 25.7008 265.767 24.8623C265.287 24.0088 264.471 23.582 263.318 23.582C261.536 23.582 259.762 24.5553 257.995 26.502V37.3506C257.995 38.7432 258.077 39.6042 258.242 39.9336C258.452 40.3678 258.736 40.6898 259.096 40.8994C259.47 41.0941 260.219 41.1914 261.342 41.1914V42H251.167V41.1914H251.616C252.664 41.1914 253.368 40.9294 253.728 40.4053C254.102 39.8662 254.289 38.848 254.289 37.3506V29.7139C254.289 27.2432 254.229 25.7383 254.109 25.1992C254.005 24.6602 253.832 24.2933 253.593 24.0986C253.368 23.904 253.061 23.8066 252.672 23.8066C252.253 23.8066 251.751 23.9189 251.167 24.1436L250.83 23.335L257.029 20.8193H257.995V25.1768Z" fill="black"/>
<circle cx="181.466" cy="371.022" r="32.9882" fill="white" stroke="black" stroke-width="2"/>
<path d="M241.904 220.508V228.883H246.56C247.768 228.883 248.576 228.701 248.982 228.336C249.523 227.857 249.826 227.013 249.888 225.805H250.466V233.18H249.888C249.742 232.148 249.596 231.487 249.451 231.195C249.263 230.831 248.956 230.544 248.529 230.336C248.102 230.128 247.445 230.023 246.56 230.023H241.904V237.008C241.904 237.945 241.945 238.518 242.029 238.727C242.112 238.924 242.258 239.086 242.466 239.211C242.674 239.326 243.07 239.383 243.654 239.383H247.247C248.445 239.383 249.315 239.299 249.857 239.133C250.398 238.966 250.919 238.638 251.419 238.148C252.065 237.503 252.727 236.529 253.404 235.227H254.029L252.201 240.539H235.872V239.961H236.622C237.122 239.961 237.596 239.841 238.044 239.602C238.378 239.435 238.602 239.185 238.716 238.852C238.841 238.518 238.904 237.836 238.904 236.805V223.039C238.904 221.695 238.768 220.867 238.497 220.555C238.122 220.138 237.497 219.93 236.622 219.93H235.872V219.352H252.201L252.435 223.992H251.826C251.607 222.878 251.362 222.112 251.091 221.695C250.831 221.279 250.44 220.961 249.919 220.742C249.503 220.586 248.768 220.508 247.716 220.508H241.904ZM267.872 240.539L259.685 222.711V236.867C259.685 238.169 259.826 238.982 260.107 239.305C260.492 239.742 261.102 239.961 261.935 239.961H262.685V240.539H255.31V239.961H256.06C256.956 239.961 257.591 239.69 257.966 239.148C258.195 238.815 258.31 238.055 258.31 236.867V223.023C258.31 222.086 258.206 221.409 257.997 220.992C257.852 220.69 257.581 220.44 257.185 220.242C256.799 220.034 256.174 219.93 255.31 219.93V219.352H261.31L268.997 235.93L276.56 219.352H282.56V219.93H281.826C280.919 219.93 280.279 220.201 279.904 220.742C279.674 221.076 279.56 221.836 279.56 223.023V236.867C279.56 238.169 279.706 238.982 279.997 239.305C280.383 239.742 280.992 239.961 281.826 239.961H282.56V240.539H273.56V239.961H274.31C275.216 239.961 275.852 239.69 276.216 239.148C276.445 238.815 276.56 238.055 276.56 236.867V222.711L268.388 240.539H267.872ZM297.888 233.445H289.685L288.247 236.789C287.893 237.612 287.716 238.227 287.716 238.633C287.716 238.956 287.867 239.242 288.169 239.492C288.482 239.732 289.148 239.888 290.169 239.961V240.539H283.497V239.961C284.383 239.805 284.956 239.602 285.216 239.352C285.747 238.852 286.336 237.836 286.982 236.305L294.435 218.867H294.982L302.357 236.492C302.951 237.909 303.487 238.831 303.966 239.258C304.456 239.674 305.133 239.909 305.997 239.961V240.539H297.638V239.961C298.482 239.919 299.049 239.779 299.341 239.539C299.643 239.299 299.794 239.008 299.794 238.664C299.794 238.206 299.586 237.482 299.169 236.492L297.888 233.445ZM297.451 232.289L293.857 223.727L290.169 232.289H297.451Z" fill="black"/>
<circle cx="180.595" cy="104.346" r="32.9882" fill="white" stroke="black" stroke-width="2"/>
<circle cx="34.1933" cy="106.089" r="32.9882" fill="white" stroke="black" stroke-width="2"/>
<path d="M182.527 403.95C181.941 403.364 180.991 403.364 180.406 403.95L170.86 413.496C170.274 414.081 170.274 415.031 170.86 415.617C171.445 416.203 172.395 416.203 172.981 415.617L181.466 407.132L189.952 415.617C190.537 416.203 191.487 416.203 192.073 415.617C192.659 415.031 192.659 414.081 192.073 413.496L182.527 403.95ZM182.966 476.473L182.966 405.01L179.966 405.01L179.966 476.473L182.966 476.473Z" fill="black"/>
<rect x="135.777" y="177.18" width="88.7637" height="130.595" fill="#EDEDED" stroke="black"/>
<rect x="320.291" y="178.68" width="85.7637" height="127.595" fill="#EDEDED" stroke="black" stroke-width="4"/>
<line x1="179.966" y1="337.034" x2="179.966" y2="309.146" stroke="black" stroke-width="3"/>
<line x1="179.966" y1="177.551" x2="179.966" y2="138.334" stroke="black" stroke-width="3"/>
<path d="M308.893 255.303C309.479 254.717 309.479 253.767 308.893 253.182L299.347 243.636C298.762 243.05 297.812 243.05 297.226 243.636C296.64 244.221 296.64 245.171 297.226 245.757L305.711 254.242L297.226 262.727C296.64 263.313 296.64 264.263 297.226 264.849C297.812 265.435 298.762 265.435 299.347 264.849L308.893 255.303ZM233.756 255.742H307.833V252.742H233.756V255.742Z" fill="black"/>
<path d="M329.608 293.322L329.077 293.572C327.837 291.208 326.947 289.119 326.405 287.307C325.988 285.89 325.78 284.463 325.78 283.025C325.78 279.671 326.556 276.666 328.108 274.01C330.014 270.76 333.103 267.593 337.374 264.51L337.749 265.057C335.822 266.484 334.249 268.083 333.03 269.854C331.509 272.062 330.264 274.729 329.296 277.854C328.327 280.979 327.843 283.822 327.843 286.385C327.843 288.343 328.431 290.656 329.608 293.322ZM343.733 272.963L343.452 273.994H341.171L339.452 280.822C338.691 283.833 337.926 286.161 337.155 287.807C336.061 290.13 334.884 291.734 333.624 292.619C332.665 293.296 331.707 293.635 330.749 293.635C330.124 293.635 329.593 293.447 329.155 293.072C328.832 292.812 328.671 292.473 328.671 292.057C328.671 291.723 328.806 291.432 329.077 291.182C329.337 290.942 329.66 290.822 330.046 290.822C330.327 290.822 330.566 290.911 330.764 291.088C330.952 291.265 331.046 291.468 331.046 291.697C331.046 291.926 330.936 292.14 330.718 292.338C330.551 292.484 330.468 292.593 330.468 292.666C330.468 292.76 330.504 292.833 330.577 292.885C330.671 292.958 330.816 292.994 331.014 292.994C331.462 292.994 331.936 292.854 332.436 292.572C332.926 292.291 333.363 291.869 333.749 291.307C334.134 290.755 334.499 289.952 334.843 288.9C334.988 288.463 335.379 287.02 336.014 284.572L338.733 273.994H336.014L336.233 272.963C337.098 272.963 337.702 272.906 338.046 272.791C338.389 272.666 338.702 272.437 338.983 272.104C339.275 271.76 339.65 271.124 340.108 270.197C340.723 268.947 341.311 267.979 341.874 267.291C342.645 266.364 343.452 265.671 344.296 265.213C345.15 264.744 345.952 264.51 346.702 264.51C347.494 264.51 348.129 264.713 348.608 265.119C349.087 265.515 349.327 265.947 349.327 266.416C349.327 266.781 349.207 267.088 348.968 267.338C348.728 267.588 348.421 267.713 348.046 267.713C347.723 267.713 347.457 267.619 347.249 267.432C347.051 267.244 346.952 267.02 346.952 266.76C346.952 266.593 347.02 266.39 347.155 266.15C347.29 265.9 347.358 265.734 347.358 265.65C347.358 265.505 347.311 265.395 347.218 265.322C347.082 265.218 346.884 265.166 346.624 265.166C345.968 265.166 345.379 265.374 344.858 265.791C344.16 266.343 343.535 267.208 342.983 268.385C342.702 268.999 342.186 270.525 341.436 272.963H343.733ZM350.311 266.385C350.749 266.385 351.119 266.536 351.421 266.838C351.723 267.14 351.874 267.51 351.874 267.947C351.874 268.374 351.718 268.744 351.405 269.057C351.103 269.359 350.738 269.51 350.311 269.51C349.884 269.51 349.514 269.359 349.202 269.057C348.9 268.744 348.749 268.374 348.749 267.947C348.749 267.51 348.9 267.14 349.202 266.838C349.504 266.536 349.874 266.385 350.311 266.385ZM350.514 272.588L347.421 283.541C347.212 284.281 347.108 284.723 347.108 284.869C347.108 285.036 347.155 285.171 347.249 285.275C347.353 285.38 347.473 285.432 347.608 285.432C347.764 285.432 347.952 285.348 348.171 285.182C348.764 284.713 349.363 284.046 349.968 283.182L350.514 283.541C349.806 284.624 348.973 285.536 348.014 286.275C347.306 286.827 346.629 287.104 345.983 287.104C345.556 287.104 345.207 286.979 344.936 286.729C344.665 286.468 344.53 286.145 344.53 285.76C344.53 285.374 344.66 284.734 344.921 283.838L346.952 276.838C347.285 275.692 347.452 274.973 347.452 274.682C347.452 274.452 347.369 274.265 347.202 274.119C347.046 273.973 346.827 273.9 346.546 273.9C346.316 273.9 345.843 273.958 345.124 274.072V273.463L350.514 272.588ZM359.124 272.588L357.046 279.697C358.994 276.791 360.483 274.88 361.514 273.963C362.556 273.046 363.556 272.588 364.514 272.588C365.035 272.588 365.462 272.76 365.796 273.104C366.139 273.447 366.311 273.895 366.311 274.447C366.311 275.072 366.16 275.906 365.858 276.947L363.952 283.525C363.733 284.286 363.624 284.749 363.624 284.916C363.624 285.062 363.665 285.187 363.749 285.291C363.832 285.385 363.921 285.432 364.014 285.432C364.139 285.432 364.29 285.364 364.468 285.229C365.02 284.791 365.624 284.124 366.28 283.229L366.764 283.525C365.796 284.911 364.879 285.9 364.014 286.494C363.41 286.9 362.869 287.104 362.389 287.104C362.004 287.104 361.697 286.984 361.468 286.744C361.238 286.515 361.124 286.202 361.124 285.807C361.124 285.307 361.301 284.447 361.655 283.229L363.468 276.947C363.697 276.166 363.811 275.557 363.811 275.119C363.811 274.911 363.744 274.744 363.608 274.619C363.473 274.484 363.306 274.416 363.108 274.416C362.816 274.416 362.468 274.541 362.061 274.791C361.29 275.26 360.488 276.036 359.655 277.119C358.822 278.192 357.941 279.567 357.014 281.244C356.525 282.13 356.119 283.098 355.796 284.15L355.014 286.729H352.671L355.514 276.947C355.848 275.77 356.014 275.062 356.014 274.822C356.014 274.593 355.921 274.395 355.733 274.229C355.556 274.051 355.332 273.963 355.061 273.963C354.936 273.963 354.718 273.984 354.405 274.025L353.811 274.119L353.718 273.557L359.124 272.588ZM383.077 272.588L380.03 283.182L379.686 284.604C379.655 284.739 379.639 284.854 379.639 284.947C379.639 285.114 379.691 285.26 379.796 285.385C379.879 285.479 379.983 285.525 380.108 285.525C380.244 285.525 380.421 285.442 380.639 285.275C381.046 284.973 381.587 284.348 382.264 283.4L382.796 283.775C382.077 284.859 381.337 285.687 380.577 286.26C379.816 286.822 379.113 287.104 378.468 287.104C378.02 287.104 377.681 286.989 377.452 286.76C377.233 286.541 377.124 286.218 377.124 285.791C377.124 285.281 377.238 284.609 377.468 283.775L377.796 282.604C376.431 284.385 375.176 285.63 374.03 286.338C373.207 286.848 372.4 287.104 371.608 287.104C370.848 287.104 370.191 286.791 369.639 286.166C369.087 285.531 368.811 284.661 368.811 283.557C368.811 281.9 369.306 280.156 370.296 278.322C371.296 276.479 372.561 275.005 374.093 273.9C375.29 273.025 376.421 272.588 377.483 272.588C378.119 272.588 378.645 272.755 379.061 273.088C379.488 273.421 379.811 273.973 380.03 274.744L380.593 272.963L383.077 272.588ZM377.514 273.4C376.848 273.4 376.139 273.713 375.389 274.338C374.327 275.223 373.379 276.536 372.546 278.275C371.723 280.015 371.311 281.588 371.311 282.994C371.311 283.702 371.488 284.265 371.843 284.682C372.197 285.088 372.603 285.291 373.061 285.291C374.197 285.291 375.431 284.452 376.764 282.775C378.546 280.546 379.436 278.26 379.436 275.916C379.436 275.031 379.264 274.39 378.921 273.994C378.577 273.598 378.108 273.4 377.514 273.4ZM393.577 264.51L388.233 283.104C387.973 284.031 387.843 284.598 387.843 284.807C387.843 284.963 387.889 285.093 387.983 285.197C388.087 285.301 388.212 285.354 388.358 285.354C388.556 285.354 388.77 285.265 388.999 285.088C389.54 284.661 390.108 283.999 390.702 283.104L391.171 283.588C390.181 284.984 389.27 285.958 388.436 286.51C387.822 286.906 387.238 287.104 386.686 287.104C386.29 287.104 385.957 286.968 385.686 286.697C385.426 286.426 385.296 286.114 385.296 285.76C385.296 285.385 385.462 284.614 385.796 283.447L390.03 268.791C390.374 267.593 390.546 266.906 390.546 266.729C390.546 266.479 390.447 266.275 390.249 266.119C390.051 265.952 389.744 265.869 389.327 265.869C389.087 265.869 388.723 265.906 388.233 265.979V265.4L393.577 264.51ZM397.624 264.807L398.155 264.51C399.395 266.864 400.28 268.947 400.811 270.76C401.238 272.176 401.452 273.604 401.452 275.041C401.452 278.406 400.676 281.411 399.124 284.057C397.207 287.317 394.119 290.489 389.858 293.572L389.483 293.088C391.41 291.65 392.983 290.051 394.202 288.291C395.723 286.083 396.968 283.416 397.936 280.291C398.905 277.156 399.389 274.307 399.389 271.744C399.389 269.786 398.801 267.473 397.624 264.807Z" fill="black"/>
<path d="M180.432 565.538V563.237H193.557V565.538H180.432ZM180.432 571.845V569.544H193.557V571.845H180.432Z" fill="black"/>
<line x1="179.966" y1="309.146" x2="179.966" y2="177.551" stroke="black" stroke-opacity="0.1" stroke-width="3" stroke-dasharray="6 6"/>
<path d="M84.9042 105.382C84.5137 105.772 84.5137 106.405 84.9042 106.796L91.2682 113.16C91.6587 113.55 92.2919 113.55 92.6824 113.16C93.0729 112.769 93.0729 112.136 92.6824 111.746L87.0255 106.089L92.6824 100.432C93.0729 100.041 93.0729 99.4083 92.6824 99.0178C92.2919 98.6273 91.6587 98.6273 91.2682 99.0178L84.9042 105.382ZM134.25 106.796C134.641 106.405 134.641 105.772 134.25 105.382L127.887 99.0178C127.496 98.6273 126.863 98.6273 126.472 99.0178C126.082 99.4083 126.082 100.041 126.472 100.432L132.129 106.089L126.472 111.746C126.082 112.136 126.082 112.769 126.472 113.16C126.863 113.55 127.496 113.55 127.887 113.16L134.25 106.796ZM85.6113 107.089L133.543 107.089V105.089L85.6113 105.089V107.089Z" fill="black"/>
<path d="M92.9774 68.3942C93.2573 67.2126 93.3505 66.9017 96.0867 66.9017C96.9262 66.9017 97.1439 66.9017 97.1439 66.3109C97.1439 66 96.8019 66 96.6775 66C96.0556 66 95.3405 66.0622 94.7186 66.0622H90.5522C89.9614 66.0622 89.2774 66 88.6866 66C88.4378 66 88.0958 66 88.0958 66.5908C88.0958 66.9017 88.3757 66.9017 88.8421 66.9017C90.7387 66.9017 90.7387 67.1504 90.7387 67.4925C90.7387 67.5546 90.7387 67.7412 90.6144 68.2076L86.4168 84.9356C86.137 86.0239 86.0748 86.3348 83.8983 86.3348C83.3075 86.3348 82.9966 86.3348 82.9966 86.8945C82.9966 87.2365 83.1831 87.2365 83.805 87.2365H97.7346C98.4187 87.2365 98.4498 87.2054 98.6674 86.6457L101.062 80.0229C101.124 79.8675 101.186 79.6809 101.186 79.5876C101.186 79.4011 101.03 79.2767 100.875 79.2767C100.844 79.2767 100.688 79.2767 100.626 79.4011C100.564 79.4322 100.564 79.4943 100.315 80.0851C99.3204 82.8213 97.9212 86.3348 92.6665 86.3348H89.6816C89.2463 86.3348 89.1841 86.3348 88.9975 86.3037C88.6555 86.2726 88.6244 86.2104 88.6244 85.9617C88.6244 85.744 88.6866 85.5575 88.7488 85.2776L92.9774 68.3942Z" fill="black"/>
<path d="M110.634 84.1061C110.158 84.1891 109.722 84.5622 109.722 85.0804C109.722 85.4535 109.971 85.723 110.427 85.723C110.738 85.723 111.381 85.495 111.381 84.5622C111.381 83.277 110.033 82.7588 108.748 82.7588C105.97 82.7588 105.1 84.728 105.1 85.7852C105.1 85.9925 105.1 86.7387 105.867 87.3191C106.344 87.6922 106.696 87.7544 107.774 87.9617C108.499 88.1068 109.681 88.3141 109.681 89.392C109.681 89.9309 109.287 90.6149 108.707 91.0088C107.94 91.5063 106.924 91.527 106.592 91.527C106.095 91.527 104.685 91.4441 104.167 90.6149C105.224 90.5735 105.369 89.7236 105.369 89.4749C105.369 88.853 104.81 88.7079 104.561 88.7079C104.229 88.7079 103.379 88.9567 103.379 90.0967C103.379 91.3197 104.665 92.1074 106.592 92.1074C110.199 92.1074 110.966 89.5578 110.966 88.6872C110.966 86.8216 108.935 86.4278 108.168 86.2827C107.173 86.0961 106.364 85.951 106.364 85.0804C106.364 84.7073 106.717 83.3392 108.727 83.3392C109.515 83.3392 110.323 83.5672 110.634 84.1061Z" fill="black"/>
<path d="M120.238 89.6407C120.135 90.0345 119.16 91.527 117.772 91.527C116.756 91.527 116.403 90.7808 116.403 89.848C116.403 88.625 117.129 86.7594 117.585 85.5986C117.792 85.0804 117.855 84.8938 117.855 84.5207C117.855 83.3806 116.942 82.7588 115.989 82.7588C113.937 82.7588 113.087 85.6815 113.087 85.9303C113.087 86.1168 113.232 86.1997 113.398 86.1997C113.667 86.1997 113.688 86.0754 113.75 85.8681C114.289 84.0232 115.201 83.3392 115.927 83.3392C116.238 83.3392 116.424 83.5465 116.424 84.0232C116.424 84.5 116.238 84.9768 115.968 85.7023C115.098 87.8995 114.911 88.7908 114.911 89.5371C114.911 91.5685 116.445 92.1074 117.668 92.1074C119.223 92.1074 120.176 90.8637 120.259 90.76C120.591 91.7343 121.523 92.1074 122.27 92.1074C123.244 92.1074 123.721 91.2783 123.866 90.9673C124.28 90.2211 124.571 89.0188 124.571 88.9359C124.571 88.8116 124.488 88.6665 124.239 88.6665C123.99 88.6665 123.949 88.7701 123.824 89.309C123.555 90.3455 123.182 91.527 122.332 91.527C121.855 91.527 121.669 91.1332 121.669 90.5528C121.669 90.2004 121.855 89.4956 121.98 88.9774C122.104 88.4592 122.415 87.2154 122.498 86.8423L122.912 85.267C123.037 84.7073 123.285 83.733 123.285 83.6087C123.285 83.0904 122.871 82.9661 122.622 82.9661C122.332 82.9661 121.876 83.1526 121.731 83.6501L120.238 89.6407Z" fill="black"/>
<path d="M126.295 94.4083C126.129 95.0716 126.087 95.2374 125.258 95.2374C124.968 95.2374 124.719 95.2374 124.719 95.6313C124.719 95.8178 124.906 95.9215 125.009 95.9215C125.217 95.9215 125.3 95.8593 126.834 95.8593C128.326 95.8593 128.761 95.9215 128.906 95.9215C128.989 95.9215 129.3 95.9215 129.3 95.5276C129.3 95.2374 129.01 95.2374 128.761 95.2374C127.766 95.2374 127.766 95.1131 127.766 94.9265C127.766 94.7814 128.139 93.3097 128.761 90.8844C129.031 91.3612 129.673 92.1074 130.793 92.1074C133.342 92.1074 135.996 89.1639 135.996 86.1583C135.996 84.1061 134.669 82.7588 133.011 82.7588C131.767 82.7588 130.772 83.6087 130.171 84.2305C129.736 82.7588 128.347 82.7588 128.139 82.7588C127.393 82.7588 126.875 83.2355 126.543 83.8781C126.067 84.8109 125.839 85.8681 125.839 85.9303C125.839 86.1168 125.984 86.1997 126.15 86.1997C126.419 86.1997 126.44 86.1168 126.585 85.5779C126.854 84.5207 127.227 83.3392 128.077 83.3392C128.595 83.3392 128.741 83.8159 128.741 84.3134C128.741 84.5207 128.658 85.0182 128.616 85.184L126.295 94.4083ZM130.109 85.5157C130.212 85.1633 130.212 85.1219 130.523 84.7487C131.311 83.8159 132.202 83.3392 132.949 83.3392C133.985 83.3392 134.379 84.3549 134.379 85.2877C134.379 86.0546 133.923 88.2726 133.301 89.4956C132.762 90.6149 131.767 91.527 130.793 91.527C129.383 91.527 129.052 89.9102 129.052 89.7651C129.052 89.7236 129.093 89.4956 129.114 89.4334L130.109 85.5157Z" fill="black"/>
<circle cx="183.209" cy="510.461" r="32.9882" fill="white" stroke="black" stroke-width="2"/>
<path d="M178.127 500.238C177.053 500.439 176.651 501.244 176.651 501.882C176.651 502.687 177.288 502.955 177.758 502.955C178.764 502.955 179.469 502.083 179.469 501.177C179.469 499.768 177.858 499.131 176.449 499.131C174.403 499.131 173.262 501.144 172.961 501.781C172.189 499.265 170.109 499.131 169.505 499.131C166.083 499.131 164.272 503.526 164.272 504.264C164.272 504.398 164.406 504.566 164.641 504.566C164.909 504.566 164.976 504.364 165.043 504.23C166.184 500.506 168.432 499.802 169.404 499.802C170.914 499.802 171.216 501.211 171.216 502.016C171.216 502.754 171.015 503.526 170.612 505.136L169.472 509.732C168.968 511.745 167.995 513.59 166.217 513.59C166.05 513.59 165.211 513.59 164.506 513.154C165.714 512.919 165.983 511.913 165.983 511.51C165.983 510.839 165.479 510.436 164.842 510.436C164.037 510.436 163.165 511.141 163.165 512.215C163.165 513.624 164.741 514.261 166.184 514.261C167.794 514.261 168.935 512.986 169.639 511.611C170.176 513.59 171.853 514.261 173.095 514.261C176.517 514.261 178.328 509.866 178.328 509.128C178.328 508.96 178.194 508.826 177.993 508.826C177.691 508.826 177.657 508.994 177.557 509.262C176.651 512.215 174.705 513.59 173.195 513.59C172.021 513.59 171.384 512.718 171.384 511.342C171.384 510.604 171.518 510.067 172.055 507.853L173.229 503.291C173.732 501.278 174.873 499.802 176.416 499.802C176.483 499.802 177.422 499.802 178.127 500.238Z" fill="black"/>
<rect x="134.906" y="426.427" width="97.4786" height="40.8316" fill="#CC99FF" stroke="black"/>
<path d="M157.433 451.761C157.411 450.503 157.615 449.492 158.047 448.727C158.479 447.962 159.039 447.405 159.729 447.056C160.426 446.708 161.161 446.534 161.933 446.534C162.706 446.534 163.411 446.704 164.047 447.045C164.691 447.378 165.426 447.905 166.252 448.624C166.812 449.109 167.259 449.45 167.592 449.647C167.933 449.844 168.305 449.943 168.706 449.943C169.358 449.943 169.873 449.708 170.252 449.238C170.63 448.761 170.812 448.071 170.797 447.17H173.252C173.274 448.427 173.07 449.439 172.638 450.204C172.214 450.969 171.653 451.526 170.956 451.874C170.259 452.223 169.524 452.397 168.752 452.397C167.979 452.397 167.274 452.231 166.638 451.897C166.002 451.556 165.267 451.026 164.433 450.306C163.88 449.821 163.433 449.481 163.092 449.284C162.752 449.087 162.38 448.988 161.979 448.988C161.365 448.988 160.858 449.204 160.456 449.636C160.062 450.06 159.873 450.768 159.888 451.761H157.433Z" fill="black"/>
<path d="M145.875 441.728H149.082C149.744 441.728 150.093 441.728 150.093 441.086C150.093 440.693 149.884 440.693 149.186 440.693H146.119L147.408 435.483C147.548 434.984 147.548 434.912 147.548 434.663C147.548 434.092 147.095 433.771 146.642 433.771C146.363 433.771 145.561 433.878 145.282 435.019L143.923 440.693H140.646C139.949 440.693 139.635 440.693 139.635 441.371C139.635 441.728 139.879 441.728 140.541 441.728H143.644L141.343 451.148C141.064 452.397 140.959 452.754 140.959 453.218C140.959 454.895 142.11 456.429 144.062 456.429C147.583 456.429 149.465 451.22 149.465 450.97C149.465 450.756 149.326 450.649 149.117 450.649C149.047 450.649 148.907 450.649 148.838 450.791C148.803 450.827 148.768 450.863 148.524 451.434C147.792 453.218 146.188 455.716 144.167 455.716C143.121 455.716 143.051 454.824 143.051 454.039C143.051 454.003 143.051 453.325 143.156 452.897L145.875 441.728Z" fill="black"/>
<path d="M189.86 435.256C190.068 434.424 190.137 434.112 190.657 433.973C190.935 433.904 192.079 433.904 192.806 433.904C196.273 433.904 197.902 434.042 197.902 436.746C197.902 437.266 197.763 438.583 197.555 439.866L197.521 440.282C197.521 440.42 197.659 440.628 197.867 440.628C198.214 440.628 198.214 440.455 198.318 439.9L199.323 433.765C199.393 433.453 199.393 433.384 199.393 433.28C199.393 432.898 199.185 432.898 198.491 432.898H179.53C178.733 432.898 178.698 432.933 178.49 433.557L176.376 439.796C176.341 439.866 176.237 440.247 176.237 440.282C176.237 440.455 176.376 440.628 176.584 440.628C176.861 440.628 176.931 440.49 177.069 440.039C178.525 435.845 179.253 433.904 183.863 433.904H186.186C187.018 433.904 187.364 433.904 187.364 434.285C187.364 434.389 187.364 434.458 187.191 435.082L182.546 453.697C182.199 455.048 182.13 455.395 178.456 455.395C177.589 455.395 177.347 455.395 177.347 456.054C177.347 456.4 177.728 456.4 177.901 456.4C178.768 456.4 179.669 456.331 180.536 456.331H185.943C186.81 456.331 187.746 456.4 188.612 456.4C188.993 456.4 189.34 456.4 189.34 455.742C189.34 455.395 189.097 455.395 188.196 455.395C185.076 455.395 185.076 455.083 185.076 454.563C185.076 454.528 185.076 454.286 185.215 453.731L189.86 435.256Z" fill="black"/>
<path d="M204.612 452.91C204.08 453.003 203.595 453.419 203.595 453.996C203.595 454.412 203.872 454.713 204.38 454.713C204.727 454.713 205.444 454.459 205.444 453.419C205.444 451.986 203.941 451.408 202.509 451.408C199.412 451.408 198.441 453.604 198.441 454.782C198.441 455.013 198.441 455.845 199.297 456.492C199.828 456.908 200.221 456.977 201.423 457.209C202.231 457.37 203.549 457.601 203.549 458.803C203.549 459.404 203.11 460.167 202.462 460.606C201.607 461.16 200.475 461.183 200.105 461.183C199.551 461.183 197.979 461.091 197.402 460.167C198.58 460.12 198.742 459.173 198.742 458.896C198.742 458.202 198.118 458.04 197.841 458.04C197.471 458.04 196.523 458.318 196.523 459.589C196.523 460.952 197.956 461.83 200.105 461.83C204.126 461.83 204.981 458.988 204.981 458.017C204.981 455.938 202.717 455.498 201.862 455.337C200.752 455.129 199.851 454.967 199.851 453.996C199.851 453.58 200.244 452.055 202.486 452.055C203.364 452.055 204.265 452.309 204.612 452.91Z" fill="black"/>
<path d="M211.112 458.41C211.367 457.417 211.621 456.423 211.852 455.406C211.875 455.36 212.037 454.69 212.06 454.574C212.129 454.366 212.707 453.419 213.308 452.841C214.047 452.171 214.833 452.055 215.249 452.055C215.503 452.055 215.919 452.078 216.243 452.356C215.249 452.564 215.11 453.419 215.11 453.627C215.11 454.135 215.503 454.482 216.012 454.482C216.636 454.482 217.329 453.973 217.329 453.049C217.329 452.217 216.612 451.408 215.295 451.408C213.724 451.408 212.661 452.448 212.175 453.072C211.713 451.408 210.142 451.408 209.911 451.408C209.079 451.408 208.501 451.94 208.131 452.656C207.6 453.696 207.346 454.875 207.346 454.944C207.346 455.152 207.507 455.244 207.692 455.244C207.993 455.244 208.016 455.152 208.178 454.551C208.455 453.419 208.871 452.055 209.841 452.055C210.442 452.055 210.581 452.633 210.581 453.141C210.581 453.557 210.465 453.996 210.281 454.759C210.234 454.944 209.888 456.307 209.795 456.631L208.94 460.097C208.848 460.444 208.709 461.022 208.709 461.114C208.709 461.645 209.148 461.83 209.449 461.83C210.257 461.83 210.419 461.183 210.604 460.398L211.112 458.41Z" fill="black"/>
<path d="M227.866 452.749C226.919 452.864 226.619 453.58 226.619 454.043C226.619 454.713 227.219 454.898 227.52 454.898C227.635 454.898 228.814 454.805 228.814 453.396C228.814 451.986 227.289 451.408 225.902 451.408C222.621 451.408 219.432 454.597 219.432 457.833C219.432 460.028 220.934 461.83 223.499 461.83C227.15 461.83 229.068 459.496 229.068 459.196C229.068 458.988 228.837 458.826 228.698 458.826C228.56 458.826 228.49 458.896 228.375 459.034C226.549 461.183 223.961 461.183 223.545 461.183C222.297 461.183 221.303 460.421 221.303 458.664C221.303 457.648 221.766 455.198 222.852 453.765C223.869 452.471 225.024 452.055 225.925 452.055C226.203 452.055 227.266 452.078 227.866 452.749Z" fill="black"/>
<rect x="195.91" y="547.563" width="51.2895" height="30.3737" fill="#B4F0A7" stroke="black"/>
<path d="M351.19 230.152C351.19 226.898 350.169 223.74 347.553 223.74C343.087 223.74 338.334 233.087 338.334 240.104C338.334 241.572 338.653 246.516 342.003 246.516C346.341 246.516 351.19 237.393 351.19 230.152ZM341.524 234.65C342.003 232.768 342.673 230.088 343.949 227.823C345.001 225.909 346.118 224.378 347.521 224.378C348.574 224.378 349.276 225.271 349.276 228.334C349.276 229.482 349.18 231.077 348.255 234.65H341.524ZM348.032 235.607C347.234 238.733 346.564 240.742 345.416 242.752C344.491 244.379 343.375 245.878 342.035 245.878C341.046 245.878 340.248 245.113 340.248 241.955C340.248 239.881 340.759 237.712 341.269 235.607H348.032Z" fill="black"/>
<path d="M356.119 245.286C356.54 245.286 357.974 245.267 358.987 244.899C360.65 244.32 360.707 243.16 360.707 242.87C360.707 241.788 359.694 241.17 358.452 241.17C356.292 241.17 353.214 242.89 353.214 246.31C353.214 248.281 354.399 249.885 356.502 249.885C359.484 249.885 361.09 247.952 361.09 247.682C361.09 247.508 360.898 247.373 360.784 247.373C360.669 247.373 360.612 247.431 360.516 247.547C359.006 249.344 356.865 249.344 356.54 249.344C355.145 249.344 354.724 248.146 354.724 247.064C354.724 246.484 354.896 245.614 354.973 245.286H356.119ZM355.125 244.745C355.737 242.387 357.477 241.711 358.452 241.711C359.216 241.711 359.943 242.097 359.943 242.87C359.943 244.745 356.808 244.745 356.005 244.745H355.125Z" fill="black"/>
<path d="M365.488 246.523C365.545 246.233 365.736 245.498 365.794 245.209C365.851 245.015 365.966 244.552 366.004 244.358C366.042 244.262 366.673 243.006 367.514 242.368C368.164 241.866 368.795 241.711 369.33 241.711C370.038 241.711 370.42 242.136 370.42 243.025C370.42 243.489 370.305 243.933 370.095 244.803C369.961 245.305 369.636 246.6 369.521 247.122L369.235 248.281C369.139 248.609 369.005 249.189 369.005 249.286C369.005 249.73 369.369 249.885 369.617 249.885C369.961 249.885 370.248 249.653 370.382 249.421C370.439 249.305 370.592 248.648 370.688 248.242L371.127 246.523C371.185 246.233 371.376 245.498 371.433 245.209C371.701 244.165 371.701 244.146 372.14 243.508C372.771 242.561 373.67 241.711 374.95 241.711C375.639 241.711 376.04 242.117 376.04 243.025C376.04 244.088 375.237 246.31 374.874 247.238C374.683 247.74 374.625 247.875 374.625 248.242C374.625 249.344 375.524 249.885 376.346 249.885C378.219 249.885 379.003 247.18 379.003 246.928C379.003 246.735 378.85 246.677 378.716 246.677C378.487 246.677 378.449 246.812 378.391 247.006C377.932 248.609 377.13 249.344 376.403 249.344C376.097 249.344 375.944 249.151 375.944 248.706C375.944 248.262 376.097 247.837 376.288 247.353C376.575 246.619 377.416 244.397 377.416 243.315C377.416 241.866 376.422 241.17 375.046 241.17C373.727 241.17 372.637 241.866 371.777 243.064C371.624 241.518 370.401 241.17 369.407 241.17C368.527 241.17 367.361 241.479 366.31 242.87C366.176 241.711 365.259 241.17 364.36 241.17C363.691 241.17 363.213 241.576 362.888 242.233C362.429 243.141 362.238 244.088 362.238 244.126C362.238 244.3 362.372 244.378 362.525 244.378C362.774 244.378 362.793 244.3 362.926 243.798C363.156 242.851 363.5 241.711 364.303 241.711C364.8 241.711 364.915 242.194 364.915 242.619C364.915 242.967 364.819 243.334 364.666 243.972C364.628 244.126 364.341 245.267 364.265 245.537L363.557 248.436C363.481 248.725 363.366 249.209 363.366 249.286C363.366 249.73 363.729 249.885 363.978 249.885C364.322 249.885 364.609 249.653 364.742 249.421C364.8 249.305 364.953 248.648 365.048 248.242L365.488 246.523Z" fill="black"/>
<path d="M387.055 242.329C386.883 242.001 386.329 241.17 385.163 241.17C382.888 241.17 380.384 243.856 380.384 246.716C380.384 248.725 381.665 249.885 383.136 249.885C384.36 249.885 385.411 248.899 385.755 248.513C386.099 249.846 387.399 249.885 387.629 249.885C388.508 249.885 388.948 249.151 389.101 248.822C389.483 248.126 389.751 247.006 389.751 246.928C389.751 246.812 389.674 246.677 389.445 246.677C389.215 246.677 389.177 246.793 389.062 247.276C388.795 248.339 388.432 249.344 387.686 249.344C387.246 249.344 387.074 248.977 387.074 248.436C387.074 248.107 387.246 247.45 387.361 246.967C387.476 246.484 387.763 245.324 387.839 244.977L388.221 243.508C388.317 243.044 388.527 242.233 388.527 242.136C388.527 241.692 388.164 241.537 387.915 241.537C387.629 241.537 387.151 241.73 387.055 242.329ZM385.755 247.605C384.8 248.938 383.806 249.344 383.194 249.344C382.315 249.344 381.875 248.532 381.875 247.527C381.875 246.619 382.391 244.552 382.812 243.701C383.366 242.523 384.303 241.711 385.182 241.711C386.424 241.711 386.788 243.122 386.788 243.353C386.788 243.431 386.31 245.324 386.195 245.827C385.947 246.735 385.947 246.774 385.755 247.605Z" fill="black"/>
<path d="M157.804 111.2C157.569 112.206 157.435 112.475 156.059 112.475C155.657 112.475 155.321 112.475 155.321 113.112C155.321 113.179 155.355 113.447 155.724 113.447C156.16 113.447 156.63 113.38 157.066 113.38H158.508C159.213 113.38 160.924 113.447 161.628 113.447C161.83 113.447 162.232 113.447 162.232 112.844C162.232 112.475 161.997 112.475 161.427 112.475C159.884 112.475 159.783 112.24 159.783 111.971C159.783 111.569 161.293 105.798 161.494 105.027C161.863 105.966 162.769 107.275 164.513 107.275C168.304 107.275 172.397 102.343 172.397 97.4115C172.397 94.3251 170.653 92.1445 168.137 92.1445C165.989 92.1445 164.178 94.2245 163.809 94.6942C163.541 93.0168 162.232 92.1445 160.89 92.1445C159.917 92.1445 159.146 92.6142 158.508 93.889C157.904 95.0967 157.435 97.1432 157.435 97.2773C157.435 97.4115 157.569 97.5793 157.804 97.5793C158.072 97.5793 158.106 97.5457 158.307 96.7741C158.81 94.7948 159.448 92.8155 160.79 92.8155C161.561 92.8155 161.83 93.3523 161.83 94.3587C161.83 95.1638 161.729 95.4993 161.595 96.1032L157.804 111.2ZM163.608 96.4722C163.842 95.5329 164.782 94.56 165.319 94.0903C165.688 93.7548 166.795 92.8155 168.069 92.8155C169.546 92.8155 170.217 94.2916 170.217 96.0361C170.217 97.6464 169.277 101.437 168.438 103.182C167.6 104.993 166.057 106.604 164.513 106.604C162.232 106.604 161.863 103.719 161.863 103.584C161.863 103.484 161.93 103.215 161.964 103.048L163.608 96.4722Z" fill="black"/>
<path d="M181.861 103.563C181.347 103.653 180.877 104.055 180.877 104.614C180.877 105.017 181.145 105.308 181.637 105.308C181.973 105.308 182.666 105.062 182.666 104.055C182.666 102.669 181.212 102.109 179.826 102.109C176.829 102.109 175.89 104.234 175.89 105.375C175.89 105.598 175.89 106.403 176.717 107.03C177.231 107.432 177.612 107.499 178.775 107.723C179.557 107.88 180.832 108.103 180.832 109.266C180.832 109.848 180.407 110.586 179.781 111.011C178.954 111.547 177.858 111.57 177.5 111.57C176.963 111.57 175.442 111.48 174.883 110.586C176.024 110.541 176.18 109.624 176.18 109.356C176.18 108.685 175.576 108.528 175.308 108.528C174.95 108.528 174.033 108.797 174.033 110.027C174.033 111.346 175.42 112.196 177.5 112.196C181.391 112.196 182.219 109.445 182.219 108.506C182.219 106.493 180.027 106.068 179.2 105.911C178.126 105.71 177.254 105.554 177.254 104.614C177.254 104.212 177.634 102.736 179.803 102.736C180.653 102.736 181.526 102.982 181.861 103.563Z" fill="black"/>
<path d="M188.153 108.886C188.399 107.924 188.645 106.963 188.869 105.979C188.891 105.934 189.047 105.285 189.07 105.173C189.137 104.972 189.696 104.055 190.278 103.496C190.993 102.847 191.754 102.736 192.156 102.736C192.402 102.736 192.805 102.758 193.118 103.026C192.156 103.228 192.022 104.055 192.022 104.256C192.022 104.748 192.402 105.084 192.894 105.084C193.498 105.084 194.169 104.592 194.169 103.697C194.169 102.892 193.476 102.109 192.201 102.109C190.68 102.109 189.651 103.116 189.182 103.72C188.734 102.109 187.214 102.109 186.99 102.109C186.185 102.109 185.626 102.624 185.268 103.317C184.753 104.324 184.507 105.464 184.507 105.531C184.507 105.733 184.664 105.822 184.843 105.822C185.134 105.822 185.156 105.733 185.312 105.151C185.581 104.055 185.983 102.736 186.923 102.736C187.504 102.736 187.638 103.295 187.638 103.787C187.638 104.189 187.527 104.614 187.348 105.352C187.303 105.531 186.968 106.851 186.878 107.164L186.051 110.519C185.961 110.854 185.827 111.413 185.827 111.503C185.827 112.017 186.252 112.196 186.543 112.196C187.325 112.196 187.482 111.57 187.661 110.809L188.153 108.886Z" fill="black"/>
<path d="M204.367 103.407C203.45 103.518 203.159 104.212 203.159 104.659C203.159 105.308 203.741 105.487 204.031 105.487C204.143 105.487 205.284 105.397 205.284 104.033C205.284 102.669 203.808 102.109 202.466 102.109C199.29 102.109 196.204 105.196 196.204 108.327C196.204 110.452 197.657 112.196 200.14 112.196C203.674 112.196 205.53 109.937 205.53 109.646C205.53 109.445 205.306 109.289 205.172 109.289C205.038 109.289 204.971 109.356 204.859 109.49C203.092 111.57 200.587 111.57 200.185 111.57C198.977 111.57 198.015 110.832 198.015 109.132C198.015 108.148 198.462 105.777 199.514 104.391C200.498 103.138 201.616 102.736 202.488 102.736C202.757 102.736 203.785 102.758 204.367 103.407Z" fill="black"/>
<path d="M18.5804 111.955C17.6746 113.23 16.3662 114.371 14.7224 114.371C14.3198 114.371 12.7095 114.304 12.2063 112.76C12.3069 112.794 12.4747 112.794 12.5418 112.794C13.5482 112.794 14.2192 111.922 14.2192 111.15C14.2192 110.379 13.5817 110.11 13.0785 110.11C12.5418 110.11 11.3676 110.513 11.3676 112.157C11.3676 113.867 12.8101 115.042 14.7224 115.042C18.0772 115.042 21.4655 111.955 22.4048 108.231L25.6925 95.1478C25.7261 94.9801 25.7932 94.7788 25.7932 94.5775C25.7932 94.0743 25.3906 93.7388 24.8874 93.7388C24.5854 93.7388 23.8809 93.873 23.6125 94.8794L21.13 104.742C20.9623 105.346 20.9623 105.413 20.6939 105.782C20.0229 106.722 18.9159 107.862 17.3056 107.862C15.4269 107.862 15.2591 106.017 15.2591 105.112C15.2591 103.199 16.1649 100.616 17.0707 98.2007C17.4397 97.2278 17.641 96.7581 17.641 96.0871C17.641 94.6781 16.6346 93.4033 14.9908 93.4033C11.9044 93.4033 10.6631 98.2678 10.6631 98.5361C10.6631 98.6703 10.7973 98.8381 11.0321 98.8381C11.334 98.8381 11.3676 98.7039 11.5018 98.2342C12.3069 95.4162 13.5817 94.0743 14.8901 94.0743C15.192 94.0743 15.7624 94.0743 15.7624 95.1814C15.7624 96.0536 15.3933 97.0265 14.8901 98.3013C13.2463 102.696 13.2463 103.803 13.2463 104.608C13.2463 107.795 15.5275 108.533 17.2049 108.533C18.1778 108.533 19.3855 108.231 20.5597 106.99L20.5932 107.024C20.09 109.003 19.7545 110.311 18.5804 111.955Z" fill="black"/>
<path d="M34.7873 104.822C34.2729 104.911 33.8032 105.314 33.8032 105.873C33.8032 106.276 34.0716 106.566 34.5636 106.566C34.8991 106.566 35.5924 106.32 35.5924 105.314C35.5924 103.927 34.1387 103.368 32.7521 103.368C29.7551 103.368 28.8158 105.493 28.8158 106.633C28.8158 106.857 28.8158 107.662 29.6433 108.289C30.1577 108.691 30.5379 108.758 31.7009 108.982C32.4837 109.138 33.7585 109.362 33.7585 110.525C33.7585 111.107 33.3336 111.845 32.7073 112.27C31.8798 112.806 30.7839 112.829 30.4261 112.829C29.8893 112.829 28.3685 112.739 27.8094 111.845C28.95 111.8 29.1065 110.883 29.1065 110.614C29.1065 109.944 28.5027 109.787 28.2343 109.787C27.8764 109.787 26.9595 110.055 26.9595 111.285C26.9595 112.605 28.3461 113.455 30.4261 113.455C34.3176 113.455 35.1451 110.704 35.1451 109.765C35.1451 107.752 32.9534 107.327 32.1258 107.17C31.0523 106.969 30.1801 106.812 30.1801 105.873C30.1801 105.47 30.5603 103.994 32.7297 103.994C33.5796 103.994 34.4518 104.24 34.7873 104.822Z" fill="black"/>
<path d="M41.0791 110.145C41.3251 109.183 41.5712 108.221 41.7948 107.237C41.8172 107.193 41.9737 106.544 41.9961 106.432C42.0632 106.231 42.6223 105.314 43.2038 104.755C43.9195 104.106 44.6799 103.994 45.0825 103.994C45.3285 103.994 45.7311 104.017 46.0442 104.285C45.0825 104.486 44.9483 105.314 44.9483 105.515C44.9483 106.007 45.3285 106.343 45.8206 106.343C46.4244 106.343 47.0954 105.851 47.0954 104.956C47.0954 104.151 46.402 103.368 45.1272 103.368C43.6064 103.368 42.5776 104.375 42.1079 104.978C41.6606 103.368 40.1398 103.368 39.9161 103.368C39.111 103.368 38.5519 103.883 38.194 104.576C37.6796 105.582 37.4336 106.723 37.4336 106.79C37.4336 106.991 37.5902 107.081 37.7691 107.081C38.0598 107.081 38.0822 106.991 38.2387 106.41C38.5071 105.314 38.9097 103.994 39.849 103.994C40.4305 103.994 40.5647 104.554 40.5647 105.046C40.5647 105.448 40.4529 105.873 40.274 106.611C40.2292 106.79 39.8938 108.11 39.8043 108.423L38.9768 111.777C38.8873 112.113 38.7531 112.672 38.7531 112.762C38.7531 113.276 39.1781 113.455 39.4688 113.455C40.2516 113.455 40.4082 112.829 40.5871 112.068L41.0791 110.145Z" fill="black"/>
<path d="M57.2937 104.665C56.3767 104.777 56.086 105.47 56.086 105.918C56.086 106.566 56.6675 106.745 56.9582 106.745C57.07 106.745 58.2106 106.656 58.2106 105.292C58.2106 103.927 56.7345 103.368 55.3926 103.368C52.2168 103.368 49.1304 106.455 49.1304 109.586C49.1304 111.71 50.5841 113.455 53.0667 113.455C56.6004 113.455 58.4567 111.196 58.4567 110.905C58.4567 110.704 58.233 110.547 58.0988 110.547C57.9646 110.547 57.8975 110.614 57.7857 110.749C56.0189 112.829 53.514 112.829 53.1114 112.829C51.9037 112.829 50.942 112.091 50.942 110.391C50.942 109.407 51.3893 107.036 52.4404 105.649C53.4245 104.397 54.5428 103.994 55.415 103.994C55.6834 103.994 56.7122 104.017 57.2937 104.665Z" fill="black"/>
<path d="M170.284 365.12C169.21 365.321 168.808 366.126 168.808 366.764C168.808 367.569 169.445 367.837 169.915 367.837C170.921 367.837 171.626 366.965 171.626 366.059C171.626 364.65 170.015 364.013 168.606 364.013C166.56 364.013 165.419 366.026 165.117 366.663C164.346 364.147 162.266 364.013 161.662 364.013C158.24 364.013 156.428 368.407 156.428 369.146C156.428 369.28 156.563 369.447 156.797 369.447C157.066 369.447 157.133 369.246 157.2 369.112C158.341 365.388 160.588 364.684 161.561 364.684C163.071 364.684 163.373 366.093 163.373 366.898C163.373 367.636 163.171 368.407 162.769 370.018L161.628 374.614C161.125 376.627 160.152 378.472 158.374 378.472C158.206 378.472 157.368 378.472 156.663 378.036C157.871 377.801 158.139 376.794 158.139 376.392C158.139 375.721 157.636 375.318 156.999 375.318C156.194 375.318 155.321 376.023 155.321 377.096C155.321 378.505 156.898 379.143 158.341 379.143C159.951 379.143 161.092 377.868 161.796 376.492C162.333 378.472 164.01 379.143 165.251 379.143C168.673 379.143 170.485 374.748 170.485 374.01C170.485 373.842 170.351 373.708 170.149 373.708C169.847 373.708 169.814 373.876 169.713 374.144C168.808 377.096 166.862 378.472 165.352 378.472C164.178 378.472 163.541 377.6 163.541 376.224C163.541 375.486 163.675 374.949 164.211 372.735L165.386 368.173C165.889 366.16 167.029 364.684 168.573 364.684C168.64 364.684 169.579 364.684 170.284 365.12Z" fill="black"/>
<path d="M177.991 356.054H180.183C180.608 356.054 180.877 356.054 180.877 355.63C180.877 355.316 180.586 355.316 180.206 355.316H178.17L178.976 352.141C179.065 351.805 179.065 351.693 179.065 351.671C179.065 351.201 178.707 350.978 178.327 350.978C177.567 350.978 177.41 351.581 177.164 352.588L176.471 355.316H174.324C173.899 355.316 173.608 355.316 173.608 355.741C173.608 356.054 173.899 356.054 174.279 356.054H176.292L174.95 361.422C174.816 361.981 174.614 362.764 174.614 363.077C174.614 364.419 175.71 365.179 176.896 365.179C179.289 365.179 180.653 362.026 180.653 361.758C180.653 361.512 180.452 361.467 180.317 361.467C180.071 361.467 180.049 361.556 179.893 361.892C179.445 362.965 178.327 364.553 176.963 364.553C176.493 364.553 176.225 364.24 176.225 363.502C176.225 363.077 176.292 362.831 176.359 362.54L177.991 356.054Z" fill="black"/>
<path d="M182.062 378.692C181.547 378.781 181.078 379.184 181.078 379.743C181.078 380.146 181.346 380.437 181.838 380.437C182.174 380.437 182.867 380.19 182.867 379.184C182.867 377.797 181.413 377.238 180.026 377.238C177.03 377.238 176.09 379.363 176.09 380.504C176.09 380.727 176.09 381.532 176.918 382.159C177.432 382.561 177.812 382.628 178.975 382.852C179.758 383.009 181.033 383.232 181.033 384.395C181.033 384.977 180.608 385.715 179.982 386.14C179.154 386.676 178.058 386.699 177.7 386.699C177.164 386.699 175.643 386.609 175.084 385.715C176.224 385.67 176.381 384.753 176.381 384.485C176.381 383.814 175.777 383.657 175.509 383.657C175.151 383.657 174.234 383.925 174.234 385.156C174.234 386.475 175.621 387.325 177.7 387.325C181.592 387.325 182.42 384.574 182.42 383.635C182.42 381.622 180.228 381.197 179.4 381.04C178.327 380.839 177.454 380.683 177.454 379.743C177.454 379.341 177.835 377.865 180.004 377.865C180.854 377.865 181.726 378.111 182.062 378.692Z" fill="black"/>
<path d="M188.354 384.015C188.6 383.053 188.846 382.092 189.069 381.107C189.092 381.063 189.248 380.414 189.271 380.302C189.338 380.101 189.897 379.184 190.478 378.625C191.194 377.976 191.954 377.865 192.357 377.865C192.603 377.865 193.006 377.887 193.319 378.155C192.357 378.357 192.223 379.184 192.223 379.385C192.223 379.877 192.603 380.213 193.095 380.213C193.699 380.213 194.37 379.721 194.37 378.826C194.37 378.021 193.676 377.238 192.402 377.238C190.881 377.238 189.852 378.245 189.382 378.849C188.935 377.238 187.414 377.238 187.191 377.238C186.385 377.238 185.826 377.753 185.468 378.446C184.954 379.452 184.708 380.593 184.708 380.66C184.708 380.861 184.865 380.951 185.043 380.951C185.334 380.951 185.357 380.861 185.513 380.28C185.782 379.184 186.184 377.865 187.123 377.865C187.705 377.865 187.839 378.424 187.839 378.916C187.839 379.318 187.727 379.743 187.548 380.481C187.504 380.66 187.168 381.98 187.079 382.293L186.251 385.648C186.162 385.983 186.028 386.542 186.028 386.632C186.028 387.146 186.452 387.325 186.743 387.325C187.526 387.325 187.683 386.699 187.862 385.938L188.354 384.015Z" fill="black"/>
<path d="M204.568 378.535C203.651 378.647 203.36 379.341 203.36 379.788C203.36 380.437 203.942 380.615 204.233 380.615C204.344 380.615 205.485 380.526 205.485 379.162C205.485 377.797 204.009 377.238 202.667 377.238C199.491 377.238 196.405 380.325 196.405 383.456C196.405 385.581 197.859 387.325 200.341 387.325C203.875 387.325 205.731 385.066 205.731 384.775C205.731 384.574 205.507 384.418 205.373 384.418C205.239 384.418 205.172 384.485 205.06 384.619C203.293 386.699 200.788 386.699 200.386 386.699C199.178 386.699 198.216 385.961 198.216 384.261C198.216 383.277 198.664 380.906 199.715 379.52C200.699 378.267 201.817 377.865 202.689 377.865C202.958 377.865 203.987 377.887 204.568 378.535Z" fill="black"/>
<path d="M186.679 511.915C186.165 512.004 185.695 512.407 185.695 512.966C185.695 513.368 185.964 513.659 186.456 513.659C186.791 513.659 187.485 513.413 187.485 512.407C187.485 511.02 186.031 510.461 184.644 510.461C181.647 510.461 180.708 512.586 180.708 513.726C180.708 513.95 180.708 514.755 181.535 515.381C182.05 515.784 182.43 515.851 183.593 516.075C184.376 516.231 185.651 516.455 185.651 517.618C185.651 518.199 185.226 518.937 184.599 519.362C183.772 519.899 182.676 519.921 182.318 519.921C181.781 519.921 180.261 519.832 179.701 518.937C180.842 518.893 180.999 517.976 180.999 517.707C180.999 517.036 180.395 516.88 180.126 516.88C179.769 516.88 178.852 517.148 178.852 518.378C178.852 519.698 180.238 520.548 182.318 520.548C186.21 520.548 187.037 517.797 187.037 516.857C187.037 514.845 184.845 514.42 184.018 514.263C182.944 514.062 182.072 513.905 182.072 512.966C182.072 512.563 182.452 511.087 184.622 511.087C185.472 511.087 186.344 511.333 186.679 511.915Z" fill="black"/>
<path d="M192.971 517.238C193.217 516.276 193.463 515.314 193.687 514.33C193.709 514.285 193.866 513.637 193.888 513.525C193.955 513.324 194.514 512.407 195.096 511.848C195.812 511.199 196.572 511.087 196.975 511.087C197.221 511.087 197.623 511.11 197.936 511.378C196.975 511.579 196.84 512.407 196.84 512.608C196.84 513.1 197.221 513.436 197.713 513.436C198.317 513.436 198.987 512.943 198.987 512.049C198.987 511.244 198.294 510.461 197.019 510.461C195.498 510.461 194.47 511.467 194 512.071C193.553 510.461 192.032 510.461 191.808 510.461C191.003 510.461 190.444 510.975 190.086 511.669C189.572 512.675 189.326 513.816 189.326 513.883C189.326 514.084 189.482 514.174 189.661 514.174C189.952 514.174 189.974 514.084 190.131 513.503C190.399 512.407 190.802 511.087 191.741 511.087C192.323 511.087 192.457 511.646 192.457 512.138C192.457 512.541 192.345 512.966 192.166 513.704C192.121 513.883 191.786 515.202 191.696 515.515L190.869 518.87C190.779 519.206 190.645 519.765 190.645 519.854C190.645 520.369 191.07 520.548 191.361 520.548C192.144 520.548 192.3 519.921 192.479 519.161L192.971 517.238Z" fill="black"/>
<path d="M209.186 511.758C208.269 511.87 207.978 512.563 207.978 513.011C207.978 513.659 208.56 513.838 208.85 513.838C208.962 513.838 210.103 513.749 210.103 512.384C210.103 511.02 208.627 510.461 207.285 510.461C204.109 510.461 201.022 513.547 201.022 516.678C201.022 518.803 202.476 520.548 204.959 520.548C208.492 520.548 210.349 518.289 210.349 517.998C210.349 517.797 210.125 517.64 209.991 517.64C209.857 517.64 209.79 517.707 209.678 517.841C207.911 519.921 205.406 519.921 205.003 519.921C203.796 519.921 202.834 519.183 202.834 517.484C202.834 516.5 203.281 514.129 204.333 512.742C205.317 511.49 206.435 511.087 207.307 511.087C207.575 511.087 208.604 511.11 209.186 511.758Z" fill="black"/>
<path d="M147.242 557.47C146.446 557.619 146.147 558.216 146.147 558.689C146.147 559.286 146.62 559.485 146.968 559.485C147.714 559.485 148.237 558.838 148.237 558.167C148.237 557.122 147.043 556.649 145.998 556.649C144.481 556.649 143.635 558.142 143.411 558.614C142.839 556.749 141.297 556.649 140.849 556.649C138.312 556.649 136.969 559.908 136.969 560.455C136.969 560.554 137.069 560.679 137.243 560.679C137.442 560.679 137.492 560.53 137.541 560.43C138.387 557.669 140.053 557.147 140.775 557.147C141.894 557.147 142.118 558.192 142.118 558.788C142.118 559.336 141.969 559.908 141.67 561.102L140.825 564.509C140.451 566.002 139.73 567.37 138.412 567.37C138.288 567.37 137.666 567.37 137.143 567.046C138.039 566.872 138.238 566.126 138.238 565.828C138.238 565.33 137.865 565.032 137.392 565.032C136.795 565.032 136.148 565.554 136.148 566.35C136.148 567.395 137.317 567.867 138.387 567.867C139.581 567.867 140.427 566.922 140.949 565.902C141.347 567.37 142.591 567.867 143.511 567.867C146.048 567.867 147.391 564.609 147.391 564.062C147.391 563.937 147.292 563.838 147.142 563.838C146.918 563.838 146.894 563.962 146.819 564.161C146.147 566.35 144.705 567.37 143.585 567.37C142.715 567.37 142.242 566.723 142.242 565.703C142.242 565.156 142.342 564.758 142.74 563.116L143.61 559.734C143.983 558.241 144.829 557.147 145.973 557.147C146.023 557.147 146.719 557.147 147.242 557.47Z" fill="black"/>
<path d="M153.8 566.186C153.384 566.256 153.005 566.569 153.005 567.003C153.005 567.317 153.222 567.543 153.619 567.543C153.89 567.543 154.45 567.351 154.45 566.569C154.45 565.49 153.276 565.056 152.156 565.056C149.736 565.056 148.977 566.708 148.977 567.595C148.977 567.769 148.977 568.395 149.645 568.882C150.061 569.195 150.368 569.247 151.307 569.421C151.939 569.543 152.969 569.717 152.969 570.621C152.969 571.073 152.626 571.647 152.12 571.977C151.452 572.395 150.567 572.412 150.278 572.412C149.844 572.412 148.616 572.343 148.164 571.647C149.086 571.612 149.212 570.899 149.212 570.69C149.212 570.169 148.724 570.047 148.508 570.047C148.219 570.047 147.478 570.256 147.478 571.212C147.478 572.238 148.598 572.899 150.278 572.899C153.42 572.899 154.089 570.76 154.089 570.03C154.089 568.464 152.319 568.134 151.65 568.012C150.783 567.856 150.079 567.734 150.079 567.003C150.079 566.69 150.386 565.543 152.138 565.543C152.824 565.543 153.529 565.734 153.8 566.186Z" fill="black"/>
<path d="M157.952 570.325C158.129 569.577 158.307 568.83 158.468 568.064C158.484 568.03 158.597 567.525 158.614 567.438C158.662 567.282 159.065 566.569 159.485 566.134C160.002 565.63 160.55 565.543 160.841 565.543C161.018 565.543 161.309 565.56 161.535 565.769C160.841 565.925 160.744 566.569 160.744 566.725C160.744 567.108 161.018 567.369 161.373 567.369C161.809 567.369 162.293 566.986 162.293 566.29C162.293 565.664 161.793 565.056 160.873 565.056C159.776 565.056 159.033 565.838 158.694 566.308C158.372 565.056 157.274 565.056 157.113 565.056C156.532 565.056 156.128 565.456 155.87 565.995C155.499 566.777 155.321 567.664 155.321 567.717C155.321 567.873 155.434 567.943 155.563 567.943C155.773 567.943 155.789 567.873 155.902 567.421C156.096 566.569 156.386 565.543 157.064 565.543C157.484 565.543 157.581 565.977 157.581 566.36C157.581 566.673 157.5 567.003 157.371 567.577C157.339 567.717 157.097 568.743 157.032 568.986L156.435 571.595C156.37 571.856 156.273 572.29 156.273 572.36C156.273 572.76 156.58 572.899 156.79 572.899C157.355 572.899 157.468 572.412 157.597 571.821L157.952 570.325Z" fill="black"/>
<path d="M170.139 566.064C169.453 566.151 169.236 566.69 169.236 567.038C169.236 567.543 169.671 567.682 169.888 567.682C169.971 567.682 170.824 567.612 170.824 566.551C170.824 565.49 169.721 565.056 168.718 565.056C166.343 565.056 164.036 567.456 164.036 569.89C164.036 571.543 165.123 572.899 166.979 572.899C169.62 572.899 171.008 571.143 171.008 570.916C171.008 570.76 170.841 570.638 170.741 570.638C170.64 570.638 170.59 570.69 170.506 570.795C169.186 572.412 167.313 572.412 167.012 572.412C166.109 572.412 165.39 571.838 165.39 570.516C165.39 569.751 165.725 567.908 166.511 566.83C167.246 565.856 168.082 565.543 168.734 565.543C168.935 565.543 169.704 565.56 170.139 566.064Z" fill="black"/>
<path d="M222.647 565.749C222.232 565.826 221.853 566.174 221.853 566.657C221.853 567.005 222.069 567.256 222.467 567.256C222.738 567.256 223.298 567.044 223.298 566.174C223.298 564.976 222.124 564.493 221.004 564.493C218.583 564.493 217.825 566.329 217.825 567.314C217.825 567.508 217.825 568.203 218.493 568.744C218.909 569.092 219.216 569.15 220.155 569.343C220.787 569.479 221.817 569.672 221.817 570.677C221.817 571.179 221.473 571.817 220.968 572.184C220.299 572.648 219.414 572.667 219.125 572.667C218.692 572.667 217.464 572.59 217.012 571.817C217.933 571.778 218.06 570.986 218.06 570.754C218.06 570.174 217.572 570.039 217.355 570.039C217.066 570.039 216.326 570.271 216.326 571.334C216.326 572.474 217.446 573.208 219.125 573.208C222.268 573.208 222.936 570.831 222.936 570.02C222.936 568.281 221.166 567.913 220.498 567.778C219.631 567.604 218.927 567.469 218.927 566.657C218.927 566.31 219.234 565.034 220.986 565.034C221.672 565.034 222.376 565.247 222.647 565.749Z" fill="black"/>
<path d="M227.129 570.348C227.329 569.517 227.528 568.686 227.71 567.836C227.728 567.797 227.855 567.237 227.873 567.14C227.928 566.967 228.382 566.174 228.854 565.691C229.435 565.131 230.052 565.034 230.379 565.034C230.579 565.034 230.905 565.054 231.16 565.285C230.379 565.459 230.27 566.174 230.27 566.348C230.27 566.773 230.579 567.063 230.978 567.063C231.468 567.063 232.013 566.638 232.013 565.865C232.013 565.169 231.45 564.493 230.415 564.493C229.181 564.493 228.345 565.363 227.964 565.884C227.601 564.493 226.366 564.493 226.185 564.493C225.531 564.493 225.077 564.938 224.787 565.537C224.369 566.406 224.169 567.392 224.169 567.45C224.169 567.624 224.297 567.701 224.442 567.701C224.678 567.701 224.696 567.624 224.823 567.121C225.041 566.174 225.368 565.034 226.13 565.034C226.602 565.034 226.711 565.517 226.711 565.942C226.711 566.29 226.621 566.657 226.475 567.295C226.439 567.45 226.167 568.59 226.094 568.86L225.422 571.759C225.35 572.049 225.241 572.532 225.241 572.609C225.241 573.053 225.586 573.208 225.822 573.208C226.457 573.208 226.584 572.667 226.729 572.01L227.129 570.348Z" fill="black"/>
<path d="M240.621 565.614C239.85 565.711 239.606 566.31 239.606 566.696C239.606 567.256 240.095 567.411 240.339 567.411C240.433 567.411 241.392 567.334 241.392 566.155C241.392 564.976 240.151 564.493 239.022 564.493C236.352 564.493 233.756 567.16 233.756 569.865C233.756 571.701 234.978 573.208 237.066 573.208C240.038 573.208 241.599 571.256 241.599 571.005C241.599 570.831 241.411 570.696 241.298 570.696C241.185 570.696 241.129 570.754 241.035 570.87C239.549 572.667 237.442 572.667 237.104 572.667C236.088 572.667 235.279 572.029 235.279 570.561C235.279 569.711 235.656 567.662 236.54 566.464C237.367 565.382 238.308 565.034 239.041 565.034C239.267 565.034 240.132 565.054 240.621 565.614Z" fill="black"/>
<line x1="131.919" y1="553.164" x2="131.919" y2="575.823" stroke="black" stroke-width="2"/>
<line x1="176.366" y1="553.164" x2="176.366" y2="575.823" stroke="black" stroke-width="2"/>
<path d="M182.737 249.79C182.181 249.888 181.673 250.329 181.673 250.941C181.673 251.382 181.963 251.701 182.495 251.701C182.858 251.701 183.608 251.431 183.608 250.329C183.608 248.81 182.035 248.197 180.536 248.197C177.295 248.197 176.279 250.525 176.279 251.774C176.279 252.019 176.279 252.901 177.174 253.587C177.73 254.028 178.141 254.102 179.399 254.346C180.246 254.518 181.624 254.763 181.624 256.037C181.624 256.674 181.165 257.482 180.487 257.948C179.593 258.536 178.407 258.56 178.02 258.56C177.44 258.56 175.795 258.462 175.191 257.482C176.424 257.433 176.593 256.429 176.593 256.135C176.593 255.4 175.94 255.228 175.65 255.228C175.263 255.228 174.271 255.522 174.271 256.87C174.271 258.315 175.771 259.246 178.02 259.246C182.229 259.246 183.124 256.233 183.124 255.204C183.124 252.999 180.754 252.534 179.859 252.362C178.698 252.142 177.754 251.97 177.754 250.941C177.754 250.5 178.166 248.883 180.512 248.883C181.431 248.883 182.374 249.153 182.737 249.79Z" fill="black"/>
<path d="M196.825 249.961C196.921 249.594 196.921 249.447 196.921 249.422C196.921 248.859 196.462 248.663 196.147 248.663C195.591 248.663 195.156 249.104 195.059 249.618C194.866 249.251 194.14 248.197 192.689 248.197C189.811 248.197 186.666 251.456 186.666 255.032C186.666 257.678 188.383 259.001 190.173 259.001C191.286 259.001 192.278 258.389 193.076 257.678L192.544 259.883C192.278 260.912 192.108 261.623 191.165 262.431C190.149 263.313 189.23 263.313 188.625 263.313C188.021 263.313 187.44 263.289 186.86 263.166C187.392 262.872 187.634 262.358 187.634 261.941C187.634 261.353 187.198 261.035 186.69 261.035C186.086 261.035 185.336 261.525 185.336 262.505C185.336 263.901 187.223 263.999 188.674 263.999C192.108 263.999 193.826 262.137 194.188 260.643L196.825 249.961ZM193.559 255.767C193.39 256.453 192.858 256.943 192.35 257.409C192.132 257.58 191.213 258.315 190.222 258.315C189.254 258.315 188.553 257.507 188.553 256.037C188.553 255.008 189.157 252.338 189.811 251.088C190.585 249.692 191.721 248.883 192.689 248.883C194.309 248.883 194.745 250.696 194.745 250.917L194.672 251.26L193.559 255.767Z" fill="black"/>
<path d="M210.892 242.734C210.917 242.685 210.989 242.367 210.989 242.342C210.989 242.22 210.892 241.999 210.602 241.999C210.505 241.999 209.756 242.073 209.199 242.122L207.845 242.22C207.313 242.269 207.071 242.293 207.071 242.734C207.071 243.077 207.41 243.077 207.7 243.077C208.861 243.077 208.861 243.224 208.861 243.444C208.861 243.591 208.667 244.4 208.546 244.89L207.361 249.667C207.143 249.251 206.442 248.197 204.967 248.197C202.088 248.197 198.92 251.603 198.92 255.228C198.92 257.776 200.54 259.246 202.403 259.246C203.951 259.246 205.281 257.997 205.716 257.507C206.152 259.197 207.797 259.246 208.087 259.246C209.199 259.246 209.756 258.315 209.949 257.899C210.433 257.017 210.771 255.596 210.771 255.498C210.771 255.351 210.675 255.179 210.385 255.179C210.094 255.179 210.046 255.326 209.901 255.939C209.562 257.286 209.103 258.56 208.159 258.56C207.603 258.56 207.385 258.095 207.385 257.409C207.385 256.943 207.458 256.674 207.53 256.355L210.892 242.734ZM205.716 256.355C204.507 258.046 203.249 258.56 202.475 258.56C201.363 258.56 200.806 257.531 200.806 256.257C200.806 255.106 201.46 252.485 201.992 251.407C202.693 249.912 203.878 248.883 204.991 248.883C206.563 248.883 207.023 250.672 207.023 250.966C207.023 251.064 206.418 253.464 206.273 254.101C205.958 255.253 205.958 255.302 205.716 256.355Z" fill="black"/>
<path d="M178.75 232.357C178.75 228.624 177.579 225 174.577 225C169.453 225 163.999 235.725 163.999 243.777C163.999 245.461 164.365 251.134 168.208 251.134C173.186 251.134 178.75 240.666 178.75 232.357ZM167.659 237.518C168.208 235.359 168.977 232.284 170.441 229.685C171.649 227.489 172.93 225.732 174.541 225.732C175.748 225.732 176.554 226.757 176.554 230.271C176.554 231.588 176.444 233.419 175.382 237.518H167.659ZM175.126 238.616C174.211 242.203 173.443 244.509 172.125 246.815C171.063 248.682 169.782 250.402 168.245 250.402C167.11 250.402 166.195 249.524 166.195 245.9C166.195 243.521 166.781 241.032 167.366 238.616H175.126Z" fill="black"/>
<g clip-path="url(#clip0_384_521)">
<path d="M203.87 554.943C203.49 554.943 203.266 554.936 203.195 554.922C203.125 554.909 203.09 554.834 203.09 554.697C203.09 554.328 203.167 554.102 203.322 554.02C203.336 554.007 204.249 554 206.062 554C209.702 554 211.62 554.014 211.817 554.041C212.702 554.178 213.44 554.485 214.03 554.963C214.62 555.442 214.922 556.07 214.937 556.849C214.937 557.724 214.529 558.51 213.714 559.206C212.899 559.903 211.964 560.375 210.91 560.621L210.7 560.682C211.599 560.805 212.337 561.12 212.913 561.625C213.489 562.131 213.784 562.759 213.798 563.511C213.798 564.509 213.292 565.472 212.281 566.401C211.269 567.33 210.025 567.857 208.549 567.98C208.451 567.993 206.969 568 204.102 568C201.291 568 199.865 567.986 199.823 567.959C199.766 567.918 199.738 567.863 199.738 567.795C199.738 567.699 199.752 567.604 199.78 567.508C199.851 567.248 199.921 567.105 199.991 567.078C200.047 567.064 200.153 567.057 200.307 567.057H200.434C200.813 567.057 201.235 567.037 201.699 566.996C201.895 566.955 202.029 566.873 202.099 566.75C202.141 566.695 202.647 564.796 203.617 561.051C204.587 557.307 205.071 555.332 205.071 555.127C205.071 555.032 204.671 554.97 203.87 554.943ZM212.681 556.849C212.681 556.439 212.576 556.057 212.365 555.701C212.154 555.346 211.81 555.114 211.332 555.004C211.234 554.977 210.587 554.957 209.393 554.943C209.112 554.943 208.816 554.943 208.507 554.943C208.198 554.943 207.952 554.95 207.77 554.963H207.495C207.285 554.977 207.151 555.045 207.095 555.168C207.067 555.223 206.842 556.043 206.42 557.628C206.42 557.669 206.413 557.71 206.399 557.751L205.746 560.334H207.453C208.592 560.334 209.245 560.32 209.414 560.293C210.257 560.156 211.009 559.76 211.669 559.104C212.33 558.448 212.667 557.696 212.681 556.849ZM211.543 563.306C211.543 562.705 211.381 562.206 211.058 561.81C210.735 561.413 210.313 561.181 209.793 561.113C209.709 561.099 209.126 561.092 208.044 561.092C206.385 561.092 205.549 561.099 205.535 561.113C205.535 561.14 205.416 561.639 205.177 562.609C204.938 563.579 204.692 564.543 204.439 565.499L204.06 566.934C204.06 566.989 204.144 567.016 204.313 567.016C204.481 567.016 205.05 567.03 206.02 567.057C207.271 567.057 207.945 567.05 208.044 567.037C208.915 566.941 209.716 566.545 210.447 565.848C211.177 565.151 211.543 564.304 211.543 563.306Z" fill="black"/>
</g>
<defs>
<clipPath id="clip0_384_521">
<rect width="16" height="14" fill="white" transform="translate(199 554)"/>
</clipPath>
</defs>
</svg>
